<svg xmlns="http://www.w3.org/2000/svg" version="1.1" xmlns:xlink="http://www.w3.org/1999/xlink" xmlns:svgjs="http://svgjs.com/svgjs" width="1000" height="1000"><rect width="1000" height="1000" rx="200" ry="200" fill="#ffffff"></rect><g transform="matrix(21.875,0,0,21.875,150,150.01974868774414)"><svg xmlns="http://www.w3.org/2000/svg" version="1.1" xmlns:xlink="http://www.w3.org/1999/xlink" xmlns:svgjs="http://svgjs.com/svgjs" width="32" height="32"><svg xmlns="http://www.w3.org/2000/svg" width="32" height="32" id="game"><path fill="#373748" d="M.5 1020.361a.5.5 0 0 0-.5.5v31a.5.5 0 0 0 .5.5h31a.5.5 0 0 0 .5-.5v-31a.5.5 0 0 0-.5-.5H.5zm.5 1h30v30H1v-30z" color="#000" font-family="sans-serif" font-weight="400" overflow="visible" style="line-height:normal;text-indent:0;text-align:start;text-decoration-line:none;text-decoration-style:solid;text-decoration-color:#000;text-transform:none;block-progression:tb;isolation:auto;mix-blend-mode:normal" transform="translate(0 -1020.362)"></path><path fill="#373748" fill-rule="evenodd" d="M20.75 1020.861v31h1v-31h-1zm-10.416 0v31h1v-31h-1z" color="#000" font-family="sans-serif" font-weight="400" overflow="visible" style="line-height:normal;text-indent:0;text-align:start;text-decoration-line:none;text-decoration-style:solid;text-decoration-color:#000;text-transform:none;block-progression:tb;isolation:auto;mix-blend-mode:normal" transform="translate(0 -1020.362)"></path><g style="line-height:125%"><path fill="#373748" d="M6.072 1045.39c0 1.516-1.635 1.77-1.635 3.316v.645h2.385v-.75h-1.56c-.008-.037-.008-.075-.008-.113 0-.862 1.643-1.477 1.643-3.127 0-.84-.42-1.32-1.23-1.32s-1.23.48-1.23 1.32v.51h.78v-.563c0-.375.165-.517.427-.517.263 0 .428.127.428.6z" font-family="Bebas Neue" font-size="7.5" font-weight="700" letter-spacing="0" word-spacing="0" style="-inkscape-font-specification:'Bebas Neue Bold'" transform="translate(0 -1020.362)"></path></g><g style="line-height:125%"><path fill="#373748" d="M26.603 1048.188a1.295 1.295 0 0 1-.03-.292c0-.96.975-1.17.975-2.535 0-.84-.412-1.32-1.215-1.32-.802 0-1.215.48-1.215 1.32v.517h.78v-.57c0-.375.15-.517.413-.517.262 0 .412.142.412.517 0 1.305-.9 1.41-.9 2.558 0 .135.015.232.045.322h.735zm-.772.368v.795h.795v-.795h-.795z" font-family="Bebas Neue" font-size="7.5" font-weight="700" letter-spacing="0" word-spacing="0" style="-inkscape-font-specification:'Bebas Neue Bold'" transform="translate(0 -1020.362)"></path></g><g style="line-height:125%"><path fill="#373748" d="M6.92 1024.664c0-.84-.443-1.32-1.253-1.32-.81 0-1.253.48-1.253 1.32v.96c0 .772.308 1.2.915 1.2.368 0 .623-.165.765-.465v.96c0 .502-.165.645-.457.645-.263 0-.428-.143-.428-.518v-.187h-.78v.135c0 .84.42 1.32 1.23 1.32.855 0 1.26-.48 1.26-1.365v-2.685zm-1.253 1.41c-.263 0-.428-.143-.428-.518v-.945c0-.375.165-.51.428-.51.262 0 .427.135.427.51v.945c0 .375-.165.518-.427.518z" font-family="Bebas Neue" font-size="7.5" font-weight="700" letter-spacing="0" word-spacing="0" style="-inkscape-font-specification:'Bebas Neue Bold'" transform="translate(0 -1020.362)"></path></g><g style="line-height:125%"><path fill="#373748" d="M25.602 1024.649h.638v4.005h.825v-5.25h-.555c-.128.352-.27.66-.908.66v.585z" font-family="Bebas Neue" font-size="7.5" font-weight="700" letter-spacing="0" word-spacing="0" style="-inkscape-font-specification:'Bebas Neue Bold'" transform="translate(0 -1020.362)"></path></g><g style="line-height:125%"><path fill="#373748" d="M14.963 1037.262v.435c0 .84.42 1.32 1.23 1.32s1.23-.48 1.23-1.32v-1.17c0-.772-.308-1.2-.915-1.2-.33 0-.57.135-.72.383l.067-1.253h1.433v-.75h-2.175l-.15 3.045h.78v-.157c0-.375.165-.518.427-.518.263 0 .428.143.428.518v1.155c0 .375-.165.51-.428.51-.262 0-.427-.135-.427-.51v-.488h-.78z" font-family="Bebas Neue" font-size="7.5" font-weight="700" letter-spacing="0" word-spacing="0" style="-inkscape-font-specification:'Bebas Neue Bold'" transform="translate(0 -1020.362)"></path></g><g style="line-height:125%"><path fill="#f55" d="M5.937 1037.855a1.295 1.295 0 0 1-.03-.293c0-.96.975-1.17.975-2.535 0-.84-.413-1.32-1.215-1.32-.803 0-1.215.48-1.215 1.32v.518h.78v-.57c0-.375.15-.518.412-.518.263 0 .413.143.413.518 0 1.305-.9 1.41-.9 2.557 0 .135.015.233.045.323h.735zm-.773.367v.795h.795v-.795h-.795z" font-family="Bebas Neue" font-size="7.5" font-weight="700" letter-spacing="0" word-spacing="0" style="-inkscape-font-specification:'Bebas Neue Bold'" transform="translate(0 -1020.362)"></path></g><path fill="#373748" fill-rule="evenodd" d="M.5 1030.695v1h31v-1H.5zm0 10.334v1h31v-1H.5z" color="#000" font-family="sans-serif" font-weight="400" overflow="visible" style="line-height:normal;text-indent:0;text-align:start;text-decoration-line:none;text-decoration-style:solid;text-decoration-color:#000;text-transform:none;block-progression:tb;isolation:auto;mix-blend-mode:normal" transform="translate(0 -1020.362)"></path></svg></svg></g></svg>